<svg width="32" height="32" viewBox="0 0 32 32" fill="none" xmlns="http://www.w3.org/2000/svg">
  <!-- Google Logo -->
  <path d="M16 2C8.26801 2 2 8.26801 2 16C2 23.732 8.26801 30 16 30C23.732 30 30 23.732 30 16C30 8.26801 23.732 2 16 2Z" fill="#4285F4"/>
  <path d="M16 2C8.26801 2 2 8.26801 2 16C2 23.732 8.26801 30 16 30C23.732 30 30 23.732 30 16C30 8.26801 23.732 2 16 2Z" fill="url(#gradient)"/>
  <defs>
    <linearGradient id="gradient" x1="2" y1="2" x2="30" y2="30" gradientUnits="userSpaceOnUse">
      <stop offset="0%" stop-color="#EA4335"/>
      <stop offset="25%" stop-color="#FBBC04"/>
      <stop offset="50%" stop-color="#34A853"/>
      <stop offset="100%" stop-color="#4285F4"/>
    </linearGradient>
  </defs>
  <!-- G letter -->
  <path d="M16 8C11.5817 8 8 11.5817 8 16C8 20.4183 11.5817 24 16 24C20.4183 24 24 20.4183 24 16C24 11.5817 20.4183 8 16 8ZM16 22C12.6863 22 10 19.3137 10 16C10 12.6863 12.6863 10 16 10C19.3137 10 22 12.6863 22 16C22 19.3137 19.3137 22 16 22ZM18 14H14C13.4477 14 13 14.4477 13 15V17C13 17.5523 13.4477 18 14 18H18C18.5523 18 19 17.5523 19 17V15C19 14.4477 18.5523 14 18 14Z" fill="white"/>
</svg>
