<svg width="32" height="32" viewBox="0 0 32 32" fill="none" xmlns="http://www.w3.org/2000/svg">
  <!-- Hivesigner Logo - Red shield with S -->
  <path d="M16 2L6 6V16C6 22.6274 11.3726 28 18 28C24.6274 28 30 22.6274 30 16V6L20 2L16 2Z" fill="#E53E3E"/>
  <path d="M16 4L8 7V16C8 21.5228 12.4772 26 18 26C23.5228 26 28 21.5228 28 16V7L20 4L16 4Z" fill="#C53030"/>
  <!-- S letter -->
  <path d="M18 12C17.4477 12 17 11.5523 17 11C17 10.4477 17.4477 10 18 10C18.5523 10 19 10.4477 19 11C19 11.5523 18.5523 12 18 12ZM16 13C15.4477 13 15 13.4477 15 14V18C15 18.5523 15.4477 19 16 19H20C20.5523 19 21 18.5523 21 18V16C21 15.4477 20.5523 15 20 15H17V14H20C20.5523 14 21 13.5523 21 13V11C21 10.4477 20.5523 10 20 10H16C15.4477 10 15 10.4477 15 11V13H16Z" fill="white"/>
</svg>
