<svg width="32" height="32" viewBox="0 0 32 32" fill="none" xmlns="http://www.w3.org/2000/svg">
  <!-- Background circle -->
  <circle cx="16" cy="16" r="16" fill="#E31337"/>
  
  <!-- Hive hexagon -->
  <path d="M16 6L22.5 10.5V21.5L16 26L9.5 21.5V10.5L16 6Z" fill="white" stroke="white" stroke-width="0.5"/>
  
  <!-- Key symbol -->
  <path d="M12 14C12 12.9 12.9 12 14 12C15.1 12 16 12.9 16 14C16 15.1 15.1 16 14 16C12.9 16 12 15.1 12 14Z" fill="#E31337"/>
  <path d="M16 14L20 18L22 16L18 12L16 14Z" fill="#E31337"/>
  
  <!-- Chain links -->
  <circle cx="20" cy="20" r="2" fill="white" stroke="#E31337" stroke-width="1"/>
  <circle cx="24" cy="20" r="2" fill="white" stroke="#E31337" stroke-width="1"/>
  <path d="M22 20L24 20" stroke="white" stroke-width="1"/>
</svg>
